<svg width="500" height="500" viewBox="0 0 500 500" fill="none" xmlns="http://www.w3.org/2000/svg">
<rect width="500" height="500" fill="#0076FE"/>
<path d="M480 500V445.417C480 409.239 444.691 379.917 401.126 379.917H190.794C147.242 379.917 111.919 409.239 111.919 445.417V500H480Z" fill="#77B255"/>
<path d="M238.644 381.074C238.644 390.833 269.668 402.831 295.959 402.831C322.251 402.831 353.262 390.833 353.262 381.085V339.416H238.631L238.644 381.074Z" fill="#FFDC5D"/>
<path d="M238.539 357.789C254.524 372.788 274.348 376.849 295.907 376.849C317.453 376.849 337.263 372.777 353.262 357.789V319.678H238.526L238.539 357.789Z" fill="#F9CA55"/>
<path d="M209.775 248.218C209.775 264.025 200.126 276.842 188.23 276.842C176.333 276.842 166.684 264.025 166.684 248.218C166.684 232.411 176.333 219.584 188.23 219.584C200.126 219.573 209.775 232.4 209.775 248.218ZM425.221 248.218C425.221 264.025 415.585 276.842 403.675 276.842C391.778 276.842 382.129 264.025 382.129 248.218C382.129 232.411 391.765 219.584 403.675 219.584C415.585 219.573 425.221 232.4 425.221 248.218Z" fill="#FFDC5D"/>
<path d="M183.918 259.397C183.918 198.383 234.082 148.909 295.959 148.909C357.836 148.909 407.987 198.383 407.987 259.397C407.987 320.41 357.836 369.884 295.959 369.884C234.096 369.873 183.918 320.41 183.918 259.397Z" fill="#FFDC5D"/>
<path d="M295.959 334.088C259.756 334.088 248.634 326.392 246.781 324.831C243.416 322.036 243.416 317.506 246.781 314.711C250.041 312.004 255.273 311.928 258.638 314.46C259.322 314.864 268.116 319.777 295.959 319.777C324.88 319.777 333.24 314.482 333.319 314.428C336.685 311.644 341.956 311.775 345.321 314.591C348.687 317.386 348.503 322.047 345.137 324.831C343.284 326.392 332.162 334.088 295.959 334.088Z" fill="#C1694F"/>
<path d="M295.96 107C370.207 107 416.611 157.741 416.611 195.654C416.611 233.568 407.33 248.742 398.049 233.568L379.488 203.241C379.488 203.241 323.815 203.241 305.254 188.067C305.254 188.067 333.096 233.568 277.411 188.067C277.411 188.067 286.692 218.405 231.006 180.491C231.006 180.491 203.164 195.654 193.883 233.568C191.306 244.091 175.321 233.568 175.321 195.654C175.308 157.741 212.431 107 295.96 107Z" fill="#FFAC33"/>
<path d="M243.377 259.833C236.147 259.833 230.231 254.921 230.231 248.917V238C230.231 231.996 236.147 227.083 243.377 227.083C250.607 227.083 256.522 231.996 256.522 238V248.917C256.522 254.921 250.607 259.833 243.377 259.833ZM348.543 259.833C341.313 259.833 335.397 254.921 335.397 248.917V238C335.397 231.996 341.313 227.083 348.543 227.083C355.773 227.083 361.688 231.996 361.688 238V248.917C361.688 254.921 355.773 259.833 348.543 259.833Z" fill="#662113"/>
<path d="M305.819 289.854H286.1C280.671 289.854 276.241 286.175 276.241 281.667C276.241 277.158 280.671 273.479 286.1 273.479H305.819C311.248 273.479 315.678 277.158 315.678 281.667C315.678 286.175 311.248 289.854 305.819 289.854Z" fill="#C1694F"/>
<path d="M453.709 489.083C453.709 495.12 447.832 500 440.563 500H309.105C301.836 500 295.96 495.12 295.96 489.083C295.96 483.046 301.836 478.167 309.105 478.167H440.563C447.832 478.167 453.709 483.046 453.709 489.083Z" fill="#E1E8ED"/>
<path d="M285.968 347.167H69.3134C49.2793 347.167 23.5925 355.583 36.7383 385.713L77.122 478.232C77.1351 478.232 82.3409 500 111.919 500H374.834L322.251 377.297C316.493 362.865 306.016 347.167 285.968 347.167Z" fill="#E1E8ED"/>
<path d="M272.823 347.167H56.1678C36.1337 347.167 10.4469 355.583 23.5926 385.713L63.9764 478.232C63.9895 478.232 69.1952 500 98.7732 500H361.688L309.105 377.297C303.347 362.865 292.87 347.167 272.823 347.167Z" fill="#99AAB5"/>
<path d="M204.189 426.673C211.077 443.834 205.491 460.842 191.714 464.652C177.937 468.473 161.189 457.654 154.301 440.493C147.413 423.332 153 406.324 166.776 402.514C180.553 398.704 197.314 409.512 204.189 426.673ZM269.668 377.188H59.3361C53.8938 377.188 49.4768 373.52 49.4768 369C49.4768 364.481 53.8938 360.812 59.3361 360.812H269.668C275.11 360.812 279.527 364.481 279.527 369C279.527 373.52 275.11 377.188 269.668 377.188Z" fill="#E1E8ED"/>
</svg>
