<svg width="1400" height="720" viewBox="0 0 1400 720" fill="none" xmlns="http://www.w3.org/2000/svg">
<rect width="1400" height="720" fill="#0076FE"/>
<path d="M1267 720V642.917C1267 591.826 1217.11 550.417 1155.55 550.417H858.339C796.798 550.417 746.886 591.826 746.886 642.917V720H1267Z" fill="#77B255"/>
<path d="M925.953 552.051C925.953 565.833 969.791 582.776 1006.94 582.776C1044.09 582.776 1087.91 565.833 1087.91 552.066V493.221H925.935L925.953 552.051Z" fill="#FFDC5D"/>
<path d="M925.805 519.167C948.393 540.35 976.404 546.085 1006.87 546.085C1037.31 546.085 1065.31 540.334 1087.91 519.167V465.348H925.786L925.805 519.167Z" fill="#F9CA55"/>
<path d="M885.161 364.43C885.161 386.753 871.527 404.852 854.716 404.852C837.905 404.852 824.271 386.753 824.271 364.43C824.271 342.107 837.905 323.992 854.716 323.992C871.527 323.977 885.161 342.091 885.161 364.43ZM1189.6 364.43C1189.6 386.753 1175.98 404.852 1159.15 404.852C1142.34 404.852 1128.7 386.753 1128.7 364.43C1128.7 342.107 1142.32 323.992 1159.15 323.992C1175.98 323.977 1189.6 342.091 1189.6 364.43Z" fill="#FFDC5D"/>
<path d="M848.624 380.217C848.624 294.053 919.508 224.185 1006.94 224.185C1094.38 224.185 1165.24 294.053 1165.24 380.217C1165.24 466.38 1094.38 536.249 1006.94 536.249C919.526 536.233 848.624 466.38 848.624 380.217Z" fill="#FFDC5D"/>
<path d="M1006.94 485.697C955.785 485.697 940.07 474.829 937.451 472.624C932.696 468.677 932.696 462.28 937.451 458.333C942.058 454.51 949.451 454.402 954.206 457.978C955.172 458.549 967.599 465.486 1006.94 465.486C1047.81 465.486 1059.62 458.009 1059.73 457.932C1064.49 454.001 1071.94 454.186 1076.69 458.163C1081.45 462.11 1081.19 468.693 1076.43 472.624C1073.81 474.829 1058.1 485.697 1006.94 485.697Z" fill="#C1694F"/>
<path d="M1006.94 165C1111.86 165 1177.43 236.657 1177.43 290.199C1177.43 343.741 1164.31 365.17 1151.2 343.741L1124.97 300.913C1124.97 300.913 1046.3 300.913 1020.08 279.484C1020.08 279.484 1059.42 343.741 980.733 279.484C980.733 279.484 993.847 322.327 915.161 268.785C915.161 268.785 875.818 290.199 862.704 343.741C859.063 358.603 836.475 343.741 836.475 290.199C836.457 236.657 888.914 165 1006.94 165Z" fill="#FFAC33"/>
<path d="M932.641 380.833C922.424 380.833 914.065 373.896 914.065 365.417V350C914.065 341.521 922.424 334.583 932.641 334.583C942.857 334.583 951.216 341.521 951.216 350V365.417C951.216 373.896 942.857 380.833 932.641 380.833ZM1081.25 380.833C1071.03 380.833 1062.67 373.896 1062.67 365.417V350C1062.67 341.521 1071.03 334.583 1081.25 334.583C1091.46 334.583 1099.82 341.521 1099.82 350V365.417C1099.82 373.896 1091.46 380.833 1081.25 380.833Z" fill="#662113"/>
<path d="M1020.87 423.229H993.011C985.339 423.229 979.08 418.034 979.08 411.667C979.08 405.3 985.339 400.104 993.011 400.104H1020.87C1028.55 400.104 1034.81 405.3 1034.81 411.667C1034.81 418.034 1028.55 423.229 1020.87 423.229Z" fill="#C1694F"/>
<path d="M1229.85 704.583C1229.85 713.109 1221.55 720 1211.27 720H1025.52C1015.25 720 1006.94 713.109 1006.94 704.583C1006.94 696.058 1015.25 689.167 1025.52 689.167H1211.27C1221.55 689.167 1229.85 696.058 1229.85 704.583Z" fill="#E1E8ED"/>
<path d="M992.825 504.167H686.682C658.373 504.167 622.076 516.053 640.652 558.603L697.716 689.259C697.734 689.259 705.09 720 746.885 720H1118.4L1044.09 546.717C1035.96 526.336 1021.15 504.167 992.825 504.167Z" fill="#E1E8ED"/>
<path d="M974.25 504.167H668.107C639.798 504.167 603.501 516.053 622.077 558.603L679.141 689.259C679.159 689.259 686.515 720 728.31 720H1099.82L1025.52 546.717C1017.38 526.336 1002.58 504.167 974.25 504.167Z" fill="#99AAB5"/>
<path d="M877.267 616.446C887.001 640.681 879.106 664.7 859.639 670.081C840.172 675.477 816.507 660.199 806.773 635.964C797.04 611.729 804.934 587.71 824.401 582.329C843.868 576.949 867.552 592.211 877.267 616.446ZM969.792 546.563H672.584C664.893 546.563 658.652 541.383 658.652 535C658.652 528.618 664.893 523.438 672.584 523.438H969.792C977.482 523.438 983.723 528.618 983.723 535C983.723 541.383 977.482 546.563 969.792 546.563Z" fill="#E1E8ED"/>
</svg>
