<svg width="32" height="32" viewBox="0 0 32 32" fill="none" xmlns="http://www.w3.org/2000/svg">
<g clip-path="url(#clip0_90_9)">
<path d="M9.84375 19.0938H4.125V15.1406H9.84375C10.6875 15.1406 11.3646 15 11.875 14.7188C12.3958 14.4375 12.776 14.0521 13.0156 13.5625C13.2656 13.0625 13.3906 12.5 13.3906 11.875C13.3906 11.2292 13.2656 10.6302 13.0156 10.0781C12.776 9.51562 12.3958 9.0625 11.875 8.71875C11.3646 8.375 10.6875 8.20312 9.84375 8.20312H5.96875V27H0.875V4.25H9.84375C11.6562 4.25 13.2083 4.57812 14.5 5.23438C15.8021 5.89062 16.7969 6.79167 17.4844 7.9375C18.1823 9.07292 18.5312 10.375 18.5312 11.8438C18.5312 13.3125 18.1823 14.5885 17.4844 15.6719C16.7969 16.7552 15.8021 17.599 14.5 18.2031C13.2083 18.7969 11.6562 19.0938 9.84375 19.0938Z" fill="#1D1D1C"/>
</g>
</svg>
